<svg width="128" height="128" viewBox="0 0 128 128" fill="none" xmlns="http://www.w3.org/2000/svg">
<g clip-path="url(#clip0)">
<path d="M62.9693 62.8781C64.6118 62.8781 65.9482 61.5419 65.9482 59.8994V51.5369C65.9482 49.8944 64.6118 48.5579 62.9693 48.5579H52.6375C50.995 48.5579 49.6585 49.8944 49.6585 51.5369V59.8994C49.6585 61.5419 50.995 62.8781 52.6375 62.8781H62.9693ZM53.4085 52.3079H62.1983V59.1284H53.4085V52.3079Z" fill="white"/>
<path d="M28.8038 62.8781C30.4463 62.8781 31.7828 61.5419 31.7828 59.8994V51.5369C31.7828 49.8944 30.4463 48.5579 28.8038 48.5579H18.472C16.8295 48.5579 15.493 49.8944 15.493 51.5369V59.8994C15.493 61.5419 16.8295 62.8781 18.472 62.8781H28.8038ZM19.243 52.3079H28.0328V59.1284H19.243V52.3079Z" fill="white"/>
<path d="M115.458 61.468H112.974V56.5207C112.974 56.1097 113.203 55.743 113.557 55.5867C114.54 55.1537 115.474 54.6497 116.335 54.0877C120.774 51.1847 123.321 46.6965 123.321 41.7737C123.321 38.6937 122.27 34.312 120.51 30.0507C119.852 28.4642 118.32 27.4392 116.608 27.4392H112.366C111.305 27.4392 110.312 27.9602 109.707 28.833C109.104 29.7035 108.967 30.814 109.34 31.807C110.429 34.6917 110.926 37.2527 110.926 38.4115C110.926 41.5582 107.164 42.9915 103.669 42.9915C100.175 42.9915 96.414 41.5582 96.414 38.4115C96.414 37.2542 96.9098 34.6935 97.9978 31.808C98.3723 30.8187 98.2363 29.7075 97.6345 28.8362C97.0303 27.9617 96.0348 27.4395 94.9715 27.4395H90.7318C89.0198 27.4395 87.488 28.4645 86.829 30.0537C85.0698 34.3125 84.0195 38.694 84.0195 41.7742C84.0195 46.6967 86.5658 51.185 91.0065 54.089C91.8658 54.65 92.8 55.154 93.7823 55.587C94.1373 55.7435 94.3665 56.1105 94.3665 56.5215V61.4687H91.9893C88.936 61.4687 86.0733 63.1012 84.5183 65.7287L80.8813 71.876C80.0188 73.3332 78.4488 74.249 76.7623 74.2917V38.9612C76.7623 37.2082 75.7265 35.6192 74.127 34.9147L71.3075 33.6652V21.4517C71.3075 19.566 69.7733 18.0317 67.8875 18.0317H64.475V16.362C64.475 13.5072 66.7975 11.1847 69.6523 11.1847H77.2465C77.3218 11.3465 77.4055 11.5052 77.5013 11.6585C80.232 16.0157 84.9275 18.617 90.0618 18.617C95.1963 18.617 99.892 16.0157 102.622 11.6587C103.517 10.231 103.517 8.386 102.623 6.9585C99.8925 2.60125 95.1968 0 90.0623 0C84.928 0 80.2325 2.60125 77.5018 6.9585C77.4053 7.1125 77.3213 7.27225 77.2455 7.43475H69.6525C64.73 7.43475 60.7253 11.4395 60.7253 16.362V18.0317H57.3153C55.4295 18.0317 53.8955 19.566 53.8955 21.4517V25.9492L43.3455 21.274C42.351 20.8347 41.213 20.9272 40.3015 21.5212C39.3903 22.115 38.846 23.119 38.846 24.2067V34.421L9.17976 21.2732C8.18401 20.8347 7.04451 20.9277 6.13326 21.5225C5.22301 22.1165 4.67951 23.1197 4.67951 24.2067V36.4915C4.67951 37.527 5.51876 38.3665 6.55451 38.3665C7.59026 38.3665 8.42951 37.527 8.42951 36.4915V25.0425L38.3605 38.3075C39.298 38.7202 40.3695 38.6325 41.227 38.073C42.0843 37.514 42.5958 36.5695 42.5958 35.5467V25.0437L72.6113 38.345C72.8548 38.4522 73.012 38.6942 73.012 38.9615V74.295H67.3015V73.1617C67.3015 71.0617 65.593 69.3532 63.493 69.3532H50.8905C48.7905 69.3532 47.082 71.0617 47.082 73.1617V84.6622H8.42926V45.241C8.42926 44.2055 7.59001 43.366 6.55426 43.366C5.51851 43.366 4.67926 44.2055 4.67926 45.241V84.9922C4.67926 86.878 6.21351 88.4122 8.09901 88.4122H47.082V104.524C47.082 106.624 48.7905 108.332 50.8905 108.332H63.493C65.593 108.332 67.3015 106.624 67.3015 104.524V103.392H75.4295C76.465 103.392 77.3045 102.552 77.3045 101.517C77.3045 100.481 76.4653 99.6417 75.4295 99.6417H67.3015V78.045H76.6393C79.691 78.045 82.5528 76.4128 84.108 73.785L87.7453 67.6377C88.6283 66.145 90.2545 65.218 91.9888 65.218H115.458C116.566 65.218 117.621 65.696 118.352 66.5292C119.083 67.3633 119.419 68.4725 119.274 69.5715L119.029 71.4207H111.018C109.982 71.4207 109.143 72.2602 109.143 73.2957C109.143 74.3312 109.982 75.1707 111.018 75.1707H118.532L117.749 81.073H109.214C108.178 81.073 107.339 81.9125 107.339 82.948C107.339 83.9835 108.178 84.823 109.214 84.823H117.252L116.47 90.7252H107.412C106.377 90.7252 105.537 91.5647 105.537 92.6002C105.537 93.6357 106.377 94.4752 107.412 94.4752H115.886C115.004 97.485 112.213 99.6422 108.998 99.6422H84.1785C83.143 99.6422 82.3035 100.482 82.3035 101.517C82.3035 102.553 83.1428 103.392 84.1785 103.392H94.3658V108.214C94.3658 110.155 95.9448 111.734 97.8858 111.734H109.453C111.394 111.734 112.973 110.155 112.973 108.214V102.637C116.579 101.217 119.297 97.9277 119.832 93.899L122.992 70.0635C123.278 67.8927 122.614 65.7035 121.171 64.0575C119.729 62.4118 117.647 61.468 115.458 61.468ZM90.0623 3.75C93.8973 3.75 97.405 5.69375 99.4455 8.94975C99.582 9.16775 99.5818 9.44925 99.4455 9.66725C97.4053 12.9232 93.8975 14.8672 90.0625 14.8672C86.8693 14.8672 83.9063 13.5157 81.8248 11.185H92.2943C93.3298 11.185 94.1693 10.3455 94.1693 9.31C94.1693 8.2745 93.33 7.435 92.2943 7.435H81.8225C83.9035 5.10225 86.8678 3.75 90.0623 3.75ZM57.6453 21.7817H67.5575V32.0035L57.6453 27.611V21.7817ZM63.5518 104.523C63.5518 104.556 63.5255 104.582 63.4933 104.582H50.8908C50.8585 104.582 50.8323 104.556 50.8323 104.523C50.8323 98.234 50.8323 79.4425 50.8323 73.1617C50.8323 73.1295 50.8585 73.1032 50.8908 73.1032H63.4933C63.5255 73.1032 63.5518 73.1295 63.5518 73.1617V104.523ZM95.2953 52.155C94.4985 51.804 93.7453 51.398 93.0578 50.949C89.6968 48.7515 87.7693 45.4072 87.7693 41.7737C87.7693 39.1985 88.737 35.256 90.2935 31.4875C90.3688 31.3062 90.5405 31.189 90.7315 31.189H94.2318C93.258 33.9412 92.6643 36.6577 92.6643 38.4112C92.6643 43.3158 97.1895 46.741 103.669 46.741C110.15 46.741 114.676 43.3158 114.676 38.4112C114.676 36.6547 114.081 33.9375 113.107 31.189H116.609C116.8 31.189 116.971 31.3062 117.046 31.485C118.603 35.256 119.571 39.1985 119.571 41.7737C119.571 45.4072 117.643 48.7515 114.284 50.9482C113.594 51.3982 112.841 51.8042 112.044 52.1555C110.331 52.9115 109.224 54.625 109.224 56.5207V61.468H98.1163V56.5207C98.1163 54.6247 97.0093 52.9112 95.2953 52.155ZM109.224 107.984H98.1165V103.391C98.1165 103.391 109.149 103.388 109.224 103.386V107.984Z" fill="white"/>
<path d="M80.0218 112.58C79.6958 111.201 78.4505 110.288 77.0635 110.409L70.4738 110.984C69.4423 111.074 68.679 111.983 68.769 113.015C68.859 114.047 69.7705 114.809 70.8 114.72L74.5138 114.395C71.378 118.775 66.987 121.918 61.8813 123.376C55.974 125.064 49.7433 124.284 44.338 121.18C35.8923 116.332 31.0025 106.669 31.8813 96.5637C31.971 95.5322 31.2075 94.6232 30.1758 94.5335C29.1465 94.4425 28.2355 95.2075 28.1455 96.239C27.1408 107.794 32.7638 118.86 42.4708 124.432C46.5853 126.795 51.1138 128 55.6833 128C58.0995 128 60.5275 127.663 62.911 126.982C68.6608 125.339 73.6233 121.869 77.2248 117.043L77.979 120.227C78.218 121.235 79.2285 121.857 80.2355 121.619C81.2433 121.38 81.8665 120.37 81.6278 119.362L80.0218 112.58Z" fill="white"/>
</g>
<defs>
<clipPath id="clip0">
<rect width="128" height="128" fill="white"/>
</clipPath>
</defs>
</svg>
