<svg width="137" height="137" viewBox="0 0 137 137" fill="none" xmlns="http://www.w3.org/2000/svg">
<path d="M48.4702 44.1704C48.9357 44.547 49.4933 44.7303 50.0476 44.7303C50.7793 44.7303 51.5025 44.4124 51.9989 43.8005L52.0218 43.7724C52.8938 42.695 52.7289 41.1156 51.6516 40.2433C50.5759 39.3713 48.9964 39.5366 48.1229 40.6139L48.0988 40.642C47.2284 41.719 47.3945 43.2988 48.4702 44.1704Z" fill="white"/>
<path d="M108.048 127.374H107.979C106.595 127.374 105.47 128.497 105.47 129.883C105.47 131.269 106.595 132.391 107.979 132.391H108.048C109.433 132.391 110.556 131.269 110.556 129.883C110.556 128.497 109.433 127.374 108.048 127.374Z" fill="white"/>
<path d="M113.094 108.016C114.759 105.534 115.732 102.551 115.732 99.3447V92.8468C115.733 92.8119 115.732 92.7769 115.732 92.7415C115.704 85.5502 110.786 79.4905 104.136 77.7242V72.1863C104.136 68.59 101.211 65.6639 97.6145 65.6639H70.3608V59.1415H90.7565C92.1409 59.1415 93.2645 58.0192 93.2645 56.6331C93.2645 47.5653 88.4699 39.3011 80.8091 34.7662C82.4754 32.2846 83.449 29.301 83.449 26.0951V19.5973C83.4494 19.5627 83.4494 19.5273 83.449 19.4919C83.4156 10.9194 76.4326 3.95361 67.8524 3.95361C59.265 3.95361 52.2763 10.9314 52.255 19.514V26.0931C52.255 34.6946 59.2517 41.6909 67.8524 41.6909C71.3811 41.6909 74.6397 40.5131 77.2555 38.5292C83.2379 41.6363 87.276 47.4772 88.0945 54.1246H47.6091C47.8049 52.5199 48.1904 50.9509 48.762 49.4354C49.2513 48.1393 48.5964 46.693 47.3004 46.2029C46.0051 45.7133 44.5568 46.3685 44.0683 47.6646C42.9874 50.5292 42.4394 53.5462 42.4394 56.6327C42.4394 58.018 43.563 59.1411 44.9479 59.1411H65.3439V65.6635H39.5817C35.9846 65.6635 33.0601 68.5888 33.0601 72.1859V77.4058C25.6594 78.6066 19.9904 85.0333 19.9719 92.7624V99.3427C19.9719 102.551 20.9448 105.534 22.6098 108.016C14.9514 112.551 10.156 120.814 10.156 129.882C10.156 131.268 11.2788 132.391 12.6645 132.391H33.3877C34.7722 132.391 35.8962 131.268 35.8962 129.882C35.8962 128.496 34.7722 127.374 33.3877 127.374H15.3261C16.1453 120.727 20.1822 114.886 26.1647 111.778C28.7808 113.761 32.039 114.94 35.5673 114.94C39.0969 114.94 42.3558 113.761 44.972 111.778C50.9537 114.886 54.9905 120.727 55.8098 127.374H50.6872C49.3019 127.374 48.1787 128.496 48.1787 129.882C48.1787 131.268 49.3019 132.391 50.6872 132.391H58.4714C59.8579 132.391 60.9799 131.268 60.9799 129.882C60.9799 120.814 56.1861 112.551 48.5261 108.016C50.1911 105.534 51.1648 102.551 51.1648 99.3427V92.846C51.1652 92.8119 51.1648 92.7757 51.1648 92.7407C51.1358 85.0204 45.4693 78.6053 38.0766 77.4042V72.1859C38.0766 71.3702 38.7664 70.6804 39.5813 70.6804H97.6145C98.4302 70.6804 99.12 71.3702 99.12 72.1859V77.2357C91.0033 77.76 84.5589 84.5199 84.5392 92.7624V99.3427C84.5392 102.551 85.5116 105.533 87.1779 108.016C79.5179 112.551 74.7241 120.814 74.7241 129.882C74.7241 131.268 75.8461 132.391 77.2325 132.391H97.9538C99.3399 132.391 100.462 131.268 100.462 129.882C100.462 128.496 99.3399 127.374 97.9538 127.374H79.8933C80.7126 120.727 84.7482 114.886 90.7315 111.778C93.3473 113.761 96.6067 114.94 100.135 114.94C103.664 114.94 106.923 113.761 109.539 111.778C115.521 114.886 119.559 120.727 120.377 127.374H115.255C113.87 127.374 112.746 128.496 112.746 129.882C112.746 131.268 113.87 132.391 115.255 132.391H123.039C124.425 132.391 125.548 131.268 125.548 129.882C125.548 120.814 120.753 112.551 113.094 108.016ZM67.8524 8.97092C72.9372 8.97092 77.1947 12.5768 78.2042 17.3662C76.5777 17.1375 74.6726 16.1823 73.8381 15.1633C73.0003 14.1386 71.5109 13.9416 70.4356 14.7126C67.1553 17.0643 61.2034 19.2387 57.3836 18.0218C58.1257 12.9105 62.5376 8.97092 67.8524 8.97092ZM57.2719 26.0951V23.1513C58.1124 23.3073 58.9755 23.3784 59.8487 23.3784C64.062 23.3784 68.5012 21.721 71.6372 19.8972C73.4405 21.2205 75.9566 22.2858 78.4313 22.4136V26.0951C78.4313 29.0313 77.2289 31.6909 75.2909 33.61C75.1804 33.6989 75.0746 33.7973 74.9794 33.9067C73.0976 35.6244 70.5944 36.674 67.8524 36.674C62.0178 36.674 57.2719 31.9281 57.2719 26.0951ZM28.4392 107.155C28.3443 107.047 28.241 106.949 28.1296 106.86C26.1912 104.941 24.9888 102.281 24.9888 99.3447V96.4017C25.8282 96.5573 26.6917 96.628 27.5648 96.628C31.7785 96.628 36.2178 94.9706 39.3541 93.1467C41.1571 94.4713 43.6736 95.5362 46.1479 95.664V99.3447C46.1479 102.281 44.9447 104.94 43.0083 106.86C42.8965 106.948 42.7916 107.049 42.6951 107.157C40.8126 108.874 38.3114 109.924 35.5673 109.924C32.8245 109.923 30.3225 108.874 28.4392 107.155ZM45.9211 90.6158C44.2934 90.387 42.3884 89.4319 41.5534 88.4128C40.7157 87.3881 39.2263 87.1912 38.1506 87.9626C34.8719 90.3139 28.9203 92.4883 25.0994 91.2714C25.8423 86.1596 30.2534 82.2205 35.5685 82.2205C40.653 82.2205 44.9121 85.8264 45.9211 90.6158ZM100.135 82.2205C100.528 82.2205 100.916 82.2426 101.298 82.284C101.327 82.288 101.355 82.2908 101.383 82.2941C105.905 82.8275 109.563 86.2244 110.488 90.6158C108.861 90.387 106.956 89.4319 106.122 88.4128C105.283 87.3873 103.794 87.1912 102.719 87.9622C99.4392 90.3139 93.4876 92.4883 89.6663 91.271C90.4099 86.1596 94.8214 82.2205 100.135 82.2205ZM93.0072 107.156C92.9124 107.047 92.8086 106.949 92.6977 106.86C90.7593 104.941 89.5561 102.281 89.5561 99.3447V96.4017C90.3959 96.5569 91.2586 96.628 92.1321 96.628C96.3458 96.628 100.785 94.9706 103.922 93.1467C105.724 94.4713 108.241 95.5362 110.715 95.664V99.3447C110.715 102.281 109.514 104.94 107.575 106.858C107.464 106.948 107.36 107.047 107.262 107.157C105.381 108.874 102.879 109.924 100.136 109.924C97.3926 109.923 94.8902 108.874 93.0072 107.156Z" fill="white"/>
<path d="M43.481 127.374H43.4123C42.0266 127.374 40.9038 128.497 40.9038 129.883C40.9038 131.269 42.0266 132.391 43.4123 132.391H43.481C44.8647 132.391 45.9894 131.269 45.9894 129.883C45.9894 128.497 44.8647 127.374 43.481 127.374Z" fill="white"/>
</svg>
