<svg width="141" height="141" viewBox="0 0 141 141" fill="none" xmlns="http://www.w3.org/2000/svg">
<path d="M128.252 105.615V101.479L133.664 96.5933C134.002 96.2884 134.237 95.8865 134.337 95.4427C134.437 94.9989 134.397 94.535 134.223 94.1148L131.262 86.9684C131.088 86.5483 130.788 86.1925 130.403 85.9496C130.019 85.7066 129.569 85.5885 129.114 85.6112L121.833 85.9822L118.909 83.0578L119.281 75.7765C119.304 75.3221 119.186 74.8717 118.943 74.4871C118.7 74.1025 118.344 73.8025 117.923 73.6284L110.776 70.668C110.356 70.4939 109.892 70.4541 109.448 70.5542C109.004 70.6543 108.602 70.8894 108.297 71.227L103.412 76.6385H99.2756L94.3901 71.227C94.0853 70.8894 93.6834 70.6543 93.2396 70.5542C92.7958 70.4541 92.3319 70.4939 91.9116 70.668L84.7652 73.6282C84.3449 73.8023 83.9888 74.1022 83.7458 74.4868C83.5028 74.8715 83.3849 75.3219 83.4081 75.7762L83.7799 83.0575L80.8547 85.9822L73.5736 85.6101C73.1192 85.5866 72.6687 85.7045 72.284 85.9475C71.8994 86.1905 71.5995 86.5468 71.4256 86.9673L68.4651 94.1148C68.291 94.535 68.2513 94.9989 68.3514 95.4427C68.4515 95.8865 68.6865 96.2884 69.0242 96.5933L74.4356 101.479V105.615L69.0242 110.5C68.6865 110.805 68.4515 111.207 68.3514 111.651C68.2513 112.095 68.291 112.559 68.4651 112.979L71.4256 120.126C71.6 120.547 71.9001 120.902 72.2846 121.145C72.6691 121.388 73.1194 121.506 73.5736 121.484L80.8547 121.112L83.7793 124.036L83.4076 131.318C83.3843 131.772 83.5022 132.222 83.7452 132.607C83.9881 132.991 84.3442 133.291 84.7644 133.466L91.9122 136.426C92.3325 136.6 92.7964 136.64 93.2402 136.54C93.6839 136.44 94.0858 136.205 94.3907 135.867L99.2761 130.456H103.412L108.298 135.867C108.603 136.205 109.005 136.44 109.448 136.54C109.892 136.64 110.356 136.6 110.776 136.426L117.924 133.466C118.344 133.291 118.701 132.991 118.943 132.607C119.186 132.222 119.304 131.772 119.281 131.318L118.909 124.036L121.834 121.112L129.115 121.484C129.569 121.507 130.02 121.389 130.404 121.146C130.789 120.903 131.089 120.547 131.263 120.126L134.223 112.979C134.398 112.559 134.437 112.095 134.337 111.651C134.237 111.207 134.002 110.805 133.664 110.5L128.252 105.615ZM127.787 117.004L121.08 116.661C120.773 116.646 120.465 116.695 120.177 116.805C119.89 116.916 119.628 117.086 119.41 117.304L115.101 121.613C114.883 121.83 114.713 122.092 114.602 122.379C114.492 122.667 114.442 122.975 114.458 123.282L114.801 129.989L110.526 131.759L106.025 126.776C105.819 126.547 105.567 126.364 105.285 126.239C105.003 126.114 104.698 126.049 104.39 126.049H98.2957C97.9878 126.05 97.6833 126.114 97.4019 126.24C97.1205 126.365 96.8685 126.547 96.6621 126.776L92.1622 131.761L87.8876 129.99L88.2302 123.284C88.2459 122.976 88.1968 122.669 88.0861 122.381C87.9755 122.093 87.8057 121.832 87.5877 121.614L83.2781 117.304C83.06 117.086 82.7987 116.916 82.511 116.806C82.2233 116.695 81.9157 116.646 81.6079 116.661L74.9019 117.004L73.1314 112.729L78.1146 108.229C78.3434 108.022 78.5263 107.77 78.6515 107.488C78.7767 107.206 78.8414 106.901 78.8413 106.593V100.499C78.841 100.191 78.7762 99.8862 78.6511 99.6049C78.5259 99.3236 78.3431 99.0716 78.1146 98.8652L73.13 94.3656L74.9005 90.091L81.6065 90.4336C81.9143 90.4491 82.222 90.3999 82.5097 90.2893C82.7974 90.1786 83.0587 90.0089 83.2768 89.7911L87.5863 85.4813C87.8043 85.2633 87.9741 85.0021 88.0848 84.7144C88.1954 84.4268 88.2445 84.1191 88.2288 83.8113L87.8862 77.105L92.1609 75.3348L96.6621 80.3177C96.8687 80.5465 97.121 80.7294 97.4026 80.8546C97.6843 80.9798 97.9891 81.0444 98.2974 81.0444H104.392C104.7 81.0442 105.004 80.9794 105.286 80.8542C105.567 80.7291 105.819 80.5463 106.025 80.3177L110.525 75.3331L114.8 77.1033L114.457 83.8096C114.442 84.1174 114.491 84.4251 114.601 84.7128C114.712 85.0004 114.882 85.2617 115.1 85.4796L119.409 89.7895C119.627 90.0075 119.889 90.1773 120.176 90.2879C120.464 90.3986 120.772 90.4477 121.08 90.432L127.786 90.0894L129.556 94.364L124.573 98.8652C124.344 99.0718 124.161 99.3242 124.036 99.6059C123.911 99.8876 123.846 100.192 123.846 100.501V106.595C123.846 106.903 123.911 107.208 124.036 107.489C124.162 107.77 124.344 108.022 124.573 108.229L129.558 112.728L127.787 117.004Z" fill="white"/>
<path d="M101.344 88.125C98.2936 88.125 95.3119 89.0295 92.7758 90.7241C90.2397 92.4186 88.2631 94.8272 87.0958 97.6452C85.9286 100.463 85.6232 103.564 86.2182 106.556C86.8133 109.547 88.2821 112.295 90.4388 114.452C92.5956 116.609 95.3435 118.077 98.3351 118.672C101.327 119.267 104.427 118.962 107.245 117.795C110.063 116.628 112.472 114.651 114.167 112.115C115.861 109.579 116.766 106.597 116.766 103.547C116.761 99.4581 115.135 95.5382 112.244 92.647C109.352 89.7559 105.432 88.1296 101.344 88.125ZM101.344 114.562C99.1651 114.562 97.0353 113.916 95.2238 112.706C93.4123 111.496 92.0004 109.775 91.1666 107.762C90.3329 105.75 90.1148 103.535 90.5398 101.398C90.9648 99.261 92.014 97.2982 93.5545 95.7577C95.0951 94.2171 97.0579 93.168 99.1947 92.7429C101.332 92.3179 103.546 92.536 105.559 93.3698C107.572 94.2035 109.292 95.6154 110.503 97.4269C111.713 99.2384 112.359 101.368 112.359 103.547C112.356 106.467 111.194 109.267 109.129 111.332C107.064 113.398 104.264 114.559 101.344 114.562Z" fill="white"/>
<path d="M24.9975 62.0854L20.6637 61.2896C20.1074 64.3281 19.8278 67.4109 19.8281 70.5H24.2344C24.2339 67.6778 24.4893 64.8615 24.9975 62.0854Z" fill="white"/>
<path d="M54.3775 118.552C58.1099 119.803 61.9756 120.612 65.896 120.965L66.2915 116.577C62.7134 116.254 59.1852 115.515 55.7787 114.374L54.3775 118.552Z" fill="white"/>
<path d="M116.719 68.3951L121.12 68.1985C120.912 63.4944 120.048 58.8424 118.553 54.3774L114.375 55.7786C115.74 59.8545 116.529 64.101 116.719 68.3951Z" fill="white"/>
<path d="M70.5 24.2345C74.7665 24.2314 79.013 24.8174 83.1192 25.9758L84.3183 21.7347C75.2817 19.1913 65.7184 19.1913 56.6817 21.7347L57.8808 25.9758C61.987 24.8174 66.2335 24.2315 70.5 24.2345Z" fill="white"/>
<path d="M90.3281 50.6719H125.578C126.162 50.6719 126.723 50.4398 127.136 50.0266C127.549 49.6134 127.781 49.0531 127.781 48.4688V26.4375C127.781 26.0955 127.701 25.7583 127.547 25.453H127.549L123.142 16.6405C122.959 16.2744 122.678 15.9665 122.33 15.7513C121.982 15.536 121.581 15.422 121.172 15.4219H94.7344C94.3253 15.4219 93.9242 15.5358 93.5762 15.7509C93.2282 15.966 92.9469 16.2737 92.764 16.6397L88.3577 25.4522H88.3594C88.2053 25.7578 88.125 26.0952 88.125 26.4375V48.4688C88.125 49.0531 88.3571 49.6134 88.7703 50.0266C89.1834 50.4398 89.7438 50.6719 90.3281 50.6719ZM123.375 46.2656H92.5312V28.6406H99.1406V35.25C99.1406 35.8343 99.3727 36.3947 99.7859 36.8078C100.199 37.221 100.759 37.4531 101.344 37.4531H114.562C115.147 37.4531 115.707 37.221 116.12 36.8078C116.534 36.3947 116.766 35.8343 116.766 35.25V28.6406H123.375V46.2656ZM112.359 28.6406V33.0469H103.547V28.6406H112.359ZM104.165 24.2344L105.267 19.8281H110.639L111.741 24.2344H104.165ZM122.013 24.2344H116.283L115.181 19.8281H119.81L122.013 24.2344ZM96.0959 19.8281H100.725L99.6237 24.2344H93.8928L96.0959 19.8281Z" fill="white"/>
<path d="M17.625 57.2812V52.875H8.8125V8.8125H30.8438V17.625H35.25V6.60938C35.25 6.02507 35.0179 5.4647 34.6047 5.05153C34.1916 4.63836 33.6312 4.40625 33.0469 4.40625H6.60938C6.02507 4.40625 5.4647 4.63836 5.05153 5.05153C4.63836 5.4647 4.40625 6.02507 4.40625 6.60938V55.0781C4.40625 55.6624 4.63836 56.2228 5.05153 56.636C5.4647 57.0491 6.02507 57.2812 6.60938 57.2812H17.625Z" fill="white"/>
<path d="M13.2188 13.2188H17.625V17.625H13.2188V13.2188Z" fill="white"/>
<path d="M22.0312 13.2188H26.4375V17.625H22.0312V13.2188Z" fill="white"/>
<path d="M13.2188 22.0312H17.625V26.4375H13.2188V22.0312Z" fill="white"/>
<path d="M13.2188 30.8438H17.625V35.25H13.2188V30.8438Z" fill="white"/>
<path d="M13.2188 39.6562H17.625V44.0625H13.2188V39.6562Z" fill="white"/>
<path d="M50.6719 22.0312H24.2344C23.6501 22.0312 23.0897 22.2634 22.6765 22.6765C22.2634 23.0897 22.0312 23.6501 22.0312 24.2344V55.0781C22.0312 55.6624 22.2634 56.2228 22.6765 56.636C23.0897 57.0491 23.6501 57.2812 24.2344 57.2812H50.6719C51.2562 57.2812 51.8166 57.0491 52.2297 56.636C52.6429 56.2228 52.875 55.6624 52.875 55.0781V24.2344C52.875 23.6501 52.6429 23.0897 52.2297 22.6765C51.8166 22.2634 51.2562 22.0312 50.6719 22.0312ZM48.4688 52.875H26.4375V26.4375H48.4688V52.875Z" fill="white"/>
<path d="M30.8438 39.6562H35.25V44.0625H30.8438V39.6562Z" fill="white"/>
<path d="M39.6562 39.6562H44.0625V44.0625H39.6562V39.6562Z" fill="white"/>
<path d="M30.8438 30.8438H35.25V35.25H30.8438V30.8438Z" fill="white"/>
<path d="M39.6562 30.8438H44.0625V35.25H39.6562V30.8438Z" fill="white"/>
<path d="M39.6562 94.7344H38.4828C40.1871 92.8334 41.3045 90.4796 41.6999 87.9573C42.0953 85.4349 41.7518 82.8521 40.7108 80.5208C39.6699 78.1895 37.9762 76.2096 35.8342 74.8202C33.6922 73.4308 31.1937 72.6914 28.6406 72.6914C26.0875 72.6914 23.589 73.4308 21.4471 74.8202C19.3051 76.2096 17.6113 78.1895 16.5704 80.5208C15.5295 82.8521 15.186 85.4349 15.5813 87.9573C15.9767 90.4796 17.0941 92.8334 18.7984 94.7344H17.625C14.7045 94.7376 11.9045 95.8993 9.8394 97.9644C7.77428 100.03 6.61266 102.829 6.60938 105.75V125.578C6.61134 127.33 7.30832 129.01 8.54739 130.249C9.78646 131.489 11.4664 132.186 13.2188 132.187V136.594H17.625V132.187C19.3773 132.186 21.0573 131.489 22.2964 130.249C23.5354 129.01 24.2324 127.33 24.2344 125.578V121.172C24.2344 120.883 24.1774 120.596 24.0667 120.329C23.956 120.061 23.7937 119.819 23.5891 119.614L19.8281 115.853V110.156H15.4219V116.766C15.4219 117.055 15.4788 117.341 15.5896 117.609C15.7003 117.876 15.8625 118.119 16.0671 118.324L19.8281 122.084V125.578C19.8275 126.162 19.5951 126.722 19.1821 127.135C18.7691 127.548 18.2091 127.781 17.625 127.781H13.2188C12.6346 127.781 12.0747 127.548 11.6616 127.135C11.2486 126.722 11.0163 126.162 11.0156 125.578V105.75C11.0176 103.998 11.7146 102.318 12.9536 101.079C14.1927 99.8396 15.8727 99.1426 17.625 99.1406H39.6562C41.4086 99.1426 43.0885 99.8396 44.3276 101.079C45.5667 102.318 46.2637 103.998 46.2656 105.75V125.578C46.265 126.162 46.0326 126.722 45.6196 127.135C45.2066 127.548 44.6466 127.781 44.0625 127.781H39.6562C39.0721 127.781 38.5122 127.548 38.0991 127.135C37.6861 126.722 37.4538 126.162 37.4531 125.578V122.084L41.2141 118.324C41.4187 118.119 41.581 117.876 41.6917 117.609C41.8024 117.341 41.8594 117.055 41.8594 116.766V110.156H37.4531V115.853L33.6921 119.614C33.4875 119.819 33.3253 120.061 33.2146 120.329C33.1038 120.596 33.0469 120.883 33.0469 121.172V125.578C33.0488 127.33 33.7458 129.01 34.9849 130.249C36.224 131.489 37.9039 132.186 39.6562 132.187V136.594H44.0625V132.187C45.8148 132.186 47.4948 131.489 48.7339 130.249C49.9729 129.01 50.6699 127.33 50.6719 125.578V105.75C50.6686 102.829 49.507 100.03 47.4419 97.9644C45.3767 95.8993 42.5768 94.7376 39.6562 94.7344ZM19.8281 85.9219C19.8281 84.1789 20.345 82.4751 21.3133 81.0259C22.2816 79.5767 23.658 78.4472 25.2682 77.7802C26.8785 77.1132 28.6504 76.9387 30.3599 77.2787C32.0693 77.6187 33.6396 78.458 34.872 79.6905C36.1045 80.9229 36.9438 82.4932 37.2838 84.2026C37.6238 85.9121 37.4493 87.684 36.7823 89.2943C36.1153 90.9045 34.9858 92.2809 33.5366 93.2492C32.0874 94.2175 30.3836 94.7344 28.6406 94.7344C26.3042 94.7317 24.0642 93.8024 22.4121 92.1503C20.76 90.4983 19.8307 88.2583 19.8281 85.9219Z" fill="white"/>
<path d="M31.9478 61.1709C31.2131 64.2262 30.8425 67.3577 30.8438 70.5H35.25C35.2487 67.7057 35.5781 64.9211 36.2312 62.2042L31.9478 61.1709Z" fill="white"/>
<path d="M54.1693 106.648C57.8684 108.322 61.8041 109.414 65.8368 109.885L66.3496 105.508C62.7675 105.09 59.2716 104.12 55.9858 102.633L54.1693 106.648Z" fill="white"/>
<path d="M105.69 68.4245L110.089 68.1695C109.813 63.3308 108.647 58.5845 106.648 54.1694L102.634 55.987C104.409 59.9094 105.445 64.1259 105.69 68.4245Z" fill="white"/>
<path d="M70.5 35.2499C74.7495 35.2436 78.9648 36.0088 82.941 37.5081L84.4964 33.3855C75.4731 29.9971 65.5269 29.9971 56.5035 33.3855L58.0589 37.5081C62.0351 36.0088 66.2505 35.2436 70.5 35.2499Z" fill="white"/>
</svg>
