<svg width="128" height="132" viewBox="0 0 128 132" fill="none" xmlns="http://www.w3.org/2000/svg">
<g filter="url(#filter0_d)">
<path d="M48 28C49.1046 28 50 27.1046 50 26C50 24.8954 49.1046 24 48 24C46.8954 24 46 24.8954 46 26C46 27.1046 46.8954 28 48 28Z" fill="white"/>
<path d="M78 32H88C88.5304 32 89.0391 31.7893 89.4142 31.4142C89.7893 31.0391 90 30.5304 90 30V20C90 19.4696 89.7893 18.9609 89.4142 18.5858C89.0391 18.2107 88.5304 18 88 18H78C77.4696 18 76.9609 18.2107 76.5858 18.5858C76.2107 18.9609 76 19.4696 76 20V30C76 30.5304 76.2107 31.0391 76.5858 31.4142C76.9609 31.7893 77.4696 32 78 32ZM80 22H86V28H80V22Z" fill="white"/>
<path d="M78 50H88C88.5304 50 89.0391 49.7893 89.4142 49.4142C89.7893 49.0391 90 48.5304 90 48V38C90 37.4696 89.7893 36.9609 89.4142 36.5858C89.0391 36.2107 88.5304 36 88 36H78C77.4696 36 76.9609 36.2107 76.5858 36.5858C76.2107 36.9609 76 37.4696 76 38V48C76 48.5304 76.2107 49.0391 76.5858 49.4142C76.9609 49.7893 77.4696 50 78 50ZM80 40H86V46H80V40Z" fill="white"/>
<path d="M78 68H88C88.5304 68 89.0391 67.7893 89.4142 67.4142C89.7893 67.0391 90 66.5304 90 66V56C90 55.4696 89.7893 54.9609 89.4142 54.5858C89.0391 54.2107 88.5304 54 88 54H78C77.4696 54 76.9609 54.2107 76.5858 54.5858C76.2107 54.9609 76 55.4696 76 56V66C76 66.5304 76.2107 67.0391 76.5858 67.4142C76.9609 67.7893 77.4696 68 78 68ZM80 58H86V64H80V58Z" fill="white"/>
<path d="M52 96H48V100H52V96Z" fill="white"/>
<path d="M44 96H40V100H44V96Z" fill="white"/>
<path d="M36 96H32V100H36V96Z" fill="white"/>
<path d="M60 76H24C20.8174 76 17.7652 77.2643 15.5147 79.5147C13.2643 81.7652 12 84.8174 12 88C12 91.1826 13.2643 94.2348 15.5147 96.4853C17.7652 98.7357 20.8174 100 24 100H28V96H24C21.8783 96 19.8434 95.1571 18.3431 93.6569C16.8429 92.1566 16 90.1217 16 88C16 85.8783 16.8429 83.8434 18.3431 82.3431C19.8434 80.8429 21.8783 80 24 80H60C63.1826 80 66.2348 78.7357 68.4853 76.4853C70.7357 74.2348 72 71.1826 72 68C72 64.8174 70.7357 61.7652 68.4853 59.5147C66.2348 57.2643 63.1826 56 60 56H46V52C46 51.4696 45.7893 50.9609 45.4142 50.5858C45.0391 50.2107 44.5304 50 44 50H28C27.4696 50 26.9609 50.2107 26.5858 50.5858C26.2107 50.9609 26 51.4696 26 52V56H24C21.8783 56 19.8434 55.1571 18.3431 53.6569C16.8429 52.1566 16 50.1217 16 48C16 45.8783 16.8429 43.8434 18.3431 42.3431C19.8434 40.8429 21.8783 40 24 40H60C63.1824 39.9992 66.2341 38.7347 68.4844 36.4844C70.7347 34.2341 71.9992 31.1824 72 28V16H68V28C67.9991 30.1215 67.156 32.1558 65.6559 33.6559C64.1558 35.156 62.1215 35.9991 60 36H52.8285L54.6317 34.1968C55.703 33.1313 56.5522 31.8641 57.1304 30.4683C57.7085 29.0724 58.0041 27.5758 58 26.065V26C58 23.3478 56.9464 20.8043 55.0711 18.9289C53.1957 17.0536 50.6522 16 48 16C45.3478 16 42.8043 17.0536 40.9289 18.9289C39.0536 20.8043 38 23.3478 38 26V26.065C37.9959 27.5758 38.2915 29.0724 38.8696 30.4683C39.4478 31.8641 40.297 33.1313 41.3683 34.1968L43.1715 36H24C20.8174 36 17.7652 37.2643 15.5147 39.5147C13.2643 41.7652 12 44.8174 12 48C12 51.1826 13.2643 54.2348 15.5147 56.4853C17.7652 58.7357 20.8174 60 24 60H26V66C26 66.5304 26.2107 67.0391 26.5858 67.4142C26.9609 67.7893 27.4696 68 28 68H30.9298L34.336 73.1095C34.5186 73.3834 34.7661 73.608 35.0564 73.7633C35.3466 73.9187 35.6708 73.9999 36 73.9999C36.3292 73.9999 36.6534 73.9187 36.9436 73.7633C37.2339 73.608 37.4814 73.3834 37.664 73.1095L41.0703 68H44C44.5304 68 45.0391 67.7893 45.4142 67.4142C45.7893 67.0391 46 66.5304 46 66V60H60C62.1217 60 64.1566 60.8429 65.6569 62.3431C67.1571 63.8434 68 65.8783 68 68C68 70.1217 67.1571 72.1566 65.6569 73.6569C64.1566 75.1571 62.1217 76 60 76ZM42 26C42 24.4087 42.6321 22.8826 43.7574 21.7574C44.8826 20.6321 46.4087 20 48 20C49.5913 20 51.1174 20.6321 52.2426 21.7574C53.3679 22.8826 54 24.4087 54 26V26.065C54.0027 27.0503 53.81 28.0264 53.4329 28.9367C53.0558 29.847 52.5019 30.6735 51.8032 31.3682L48 35.1717L44.1968 31.3682C43.4981 30.6735 42.9442 29.847 42.5671 28.9367C42.19 28.0264 41.9973 27.0503 42 26.065V26ZM42 64H40C39.6708 64 39.3466 64.0813 39.0564 64.2366C38.7661 64.392 38.5186 64.6166 38.336 64.8905L36 68.3945L33.664 64.8905C33.4814 64.6166 33.2339 64.392 32.9436 64.2366C32.6534 64.0813 32.3292 64 32 64H30V54H42V64Z" fill="white"/>
<path d="M116 4H110C109.47 4 108.961 4.21071 108.586 4.58579C108.211 4.96086 108 5.46957 108 6V8H14C11.3487 8.00298 8.80694 9.0575 6.93222 10.9322C5.0575 12.8069 4.00298 15.3487 4 18V114C4.00298 116.651 5.0575 119.193 6.93222 121.068C8.80694 122.942 11.3487 123.997 14 124H22C22.5304 124 23.0391 123.789 23.4142 123.414C23.7893 123.039 24 122.53 24 122V108H61.7972C61.7847 108.025 61.7723 108.051 61.7615 108.078C61.7515 108.1 61.7427 108.122 61.7337 108.145C61.7125 108.199 61.6935 108.253 61.677 108.308C61.6727 108.322 61.6665 108.335 61.6625 108.349L58.073 121.276C57.9736 121.634 57.9758 122.013 58.0794 122.369C58.183 122.726 58.3839 123.047 58.6596 123.296C58.9352 123.545 59.2748 123.712 59.6401 123.779C60.0055 123.846 60.3823 123.809 60.7282 123.674L73.225 118.789C73.2335 118.786 73.2412 118.781 73.25 118.778C73.3112 118.753 73.3711 118.725 73.4295 118.694C73.4412 118.688 73.4545 118.682 73.465 118.676C73.5354 118.637 73.6035 118.594 73.6687 118.547C73.6792 118.539 73.6885 118.531 73.6988 118.522C73.7503 118.483 73.8005 118.442 73.8487 118.397C73.87 118.378 73.8895 118.357 73.91 118.336C73.9305 118.316 73.9583 118.291 73.981 118.266L83.2517 108H116C118.121 107.998 120.154 107.154 121.654 105.654C123.154 104.154 123.998 102.121 124 100V12C124.002 11.0916 123.847 10.1897 123.541 9.33425C122.989 7.77531 121.967 6.42559 120.617 5.47048C119.267 4.51536 117.654 4.00169 116 4ZM112 8H116C116.829 8.00133 117.636 8.25947 118.312 8.73889C118.988 9.21831 119.498 9.89542 119.773 10.677C119.925 11.1016 120.001 11.5492 120 12V93.075C118.785 92.3695 117.405 91.9986 116 92H112V74.75C112.313 73.4931 112.313 72.1787 112 70.9218V8ZM72.3518 114.102L70.8675 112.762L96.3357 84.5595L97.82 85.8997L72.3518 114.102ZM91.8825 80.538L93.367 81.8785L67.9 110.081L66.4155 108.741L91.8825 80.538ZM100.5 82.9313L94.5625 77.5695L97.2445 74.6L103.182 79.9617L100.5 82.9313ZM108.233 72.8313C108.234 73.8213 107.866 74.7761 107.202 75.5102L105.862 76.9948L103.201 74.5918L99.925 71.6322L101.265 70.148C101.807 69.5478 102.518 69.1259 103.305 68.938C104.091 68.7501 104.916 68.805 105.671 69.0955C106.426 69.386 107.075 69.8984 107.532 70.5652C107.99 71.232 108.235 72.0218 108.234 72.8305L108.233 72.8313ZM8 18C8.00185 16.4093 8.63459 14.8842 9.75941 13.7594C10.8842 12.6346 12.4093 12.0019 14 12H108V22H96C95.4696 22 94.9609 22.2107 94.5858 22.5858C94.2107 22.9609 94 23.4696 94 24C94 24.5304 94.2107 25.0391 94.5858 25.4142C94.9609 25.7893 95.4696 26 96 26H108V42H96C95.4696 42 94.9609 42.2107 94.5858 42.5858C94.2107 42.9609 94 43.4696 94 44C94 44.5304 94.2107 45.0391 94.5858 45.4142C94.9609 45.7893 95.4696 46 96 46H108V60H96C95.4696 60 94.9609 60.2107 94.5858 60.5858C94.2107 60.9609 94 61.4696 94 62C94 62.5304 94.2107 63.0391 94.5858 63.4142C94.9609 63.7893 95.4696 64 96 64H108V65.7712C106.425 64.9304 104.615 64.6406 102.856 64.9479C101.098 65.2552 99.493 66.142 98.297 67.467L95.6162 70.4358L90.2545 76.3727L90.2523 76.3753L69.4 99.467C68.4316 98.3812 67.2456 97.5114 65.919 96.914C64.5924 96.3167 63.1549 96.0053 61.7 96H56V100H61.7C62.6649 100.004 63.6161 100.228 64.4815 100.654C65.3469 101.081 66.1037 101.699 66.6943 102.462L65.3057 104H14C11.835 103.998 9.72846 104.702 8 106.006V18ZM20 120H14C12.4087 120 10.8826 119.368 9.75736 118.243C8.63214 117.117 8 115.591 8 114C8 112.409 8.63214 110.883 9.75736 109.757C10.8826 108.632 12.4087 108 14 108H20V120ZM62.9972 118.493L64.651 112.537L67.3355 114.963L68.7535 116.243L62.9972 118.493ZM116 104H86.864L102.129 87.0963L107.489 81.1612L107.491 81.1592L108 80.5955V94C108 94.5304 108.211 95.0391 108.586 95.4142C108.961 95.7893 109.47 96 110 96H116C117.061 96 118.078 96.4214 118.828 97.1716C119.579 97.9217 120 98.9391 120 100C120 101.061 119.579 102.078 118.828 102.828C118.078 103.579 117.061 104 116 104Z" fill="white"/>
</g>
<defs>
<filter id="filter0_d" x="-4" y="0" width="136" height="136" filterUnits="userSpaceOnUse" color-interpolation-filters="sRGB">
<feFlood flood-opacity="0" result="BackgroundImageFix"/>
<feColorMatrix in="SourceAlpha" type="matrix" values="0 0 0 0 0 0 0 0 0 0 0 0 0 0 0 0 0 0 127 0" result="hardAlpha"/>
<feOffset dy="4"/>
<feGaussianBlur stdDeviation="2"/>
<feComposite in2="hardAlpha" operator="out"/>
<feColorMatrix type="matrix" values="0 0 0 0 0 0 0 0 0 0 0 0 0 0 0 0 0 0 0.25 0"/>
<feBlend mode="normal" in2="BackgroundImageFix" result="effect1_dropShadow"/>
<feBlend mode="normal" in="SourceGraphic" in2="effect1_dropShadow" result="shape"/>
</filter>
</defs>
</svg>
