<svg width="124" height="124" viewBox="0 0 124 124" fill="none" xmlns="http://www.w3.org/2000/svg">
<path d="M124 60V0H40V20H28.92C30.828 17.874 32 15.076 32 12C32 5.382 26.618 0 20 0C13.382 0 8 5.382 8 12C8 15.592 9.594 18.812 12.102 21.012C5.07 23.462 0 30.142 0 38V44C0 48.412 3.588 52 8 52V73C8 74.078 8.266 75.088 8.702 76H0V92H8.7C8.256 93.254 8 94.596 8 96C8 99.592 9.594 102.812 12.102 105.012C5.07 107.462 0 114.142 0 122V124H36H40H72H76H112V122C112 114.142 106.93 107.462 99.898 105.012C102.406 102.812 104 99.592 104 96C104 94.596 103.744 93.254 103.3 92H124V76H111.132L101.532 60H124ZM44 4H120V56H44V32H50C52.604 32 54.804 30.322 55.632 28H80V8H48V20H44V4ZM31.298 76C31.734 75.088 32 74.078 32 73V32H40V60H62.468L52.868 76H31.298ZM67.132 60H72.468L62.868 76H57.532L67.132 60ZM76 61.888V76H67.532L76 61.888ZM80 60H84V76H80V60ZM88 61.888L96.468 76H88V61.888ZM55.632 24C55.028 22.306 53.694 20.972 52 20.368V12H76V24H55.632ZM20 4C24.412 4 28 7.588 28 12C28 16.412 24.412 20 20 20C15.588 20 12 16.412 12 12C12 7.588 15.588 4 20 4ZM12 73V38H8V48C5.794 48 4 46.206 4 44V38C4 30.28 10.28 24 18 24H50C51.102 24 52 24.898 52 26C52 27.102 51.102 28 50 28H28V73C28 74.654 26.654 76 25 76C23.346 76 22 74.654 22 73V46H18V73C18 74.654 16.654 76 15 76C13.346 76 12 74.654 12 73ZM20 88C24.412 88 28 91.588 28 96C28 100.412 24.412 104 20 104C15.588 104 12 100.412 12 96C12 91.588 15.588 88 20 88ZM4.142 120C5.116 113.224 10.958 108 18 108H22C29.042 108 34.884 113.224 35.858 120H4.142ZM27.898 105.012C30.406 102.812 32 99.592 32 96C32 94.596 31.744 93.254 31.3 92H44.7C44.256 93.254 44 94.596 44 96C44 99.592 45.594 102.812 48.102 105.012C43.716 106.54 40.102 109.708 38 113.79C35.896 109.708 32.282 106.54 27.898 105.012ZM64 96C64 100.412 60.412 104 56 104C51.588 104 48 100.412 48 96C48 91.588 51.588 88 56 88C60.412 88 64 91.588 64 96ZM40.142 120C41.116 113.224 46.958 108 54 108H58C65.042 108 70.884 113.224 71.858 120H40.142ZM63.898 105.012C66.406 102.812 68 99.592 68 96C68 94.596 67.744 93.254 67.3 92H80.7C80.256 93.254 80 94.596 80 96C80 99.592 81.594 102.812 84.102 105.012C79.716 106.54 76.102 109.708 74 113.79C71.896 109.708 68.282 106.54 63.898 105.012ZM94 108C101.042 108 106.884 113.224 107.858 120H76.142C77.116 113.224 82.958 108 90 108H94ZM92 104C87.588 104 84 100.412 84 96C84 91.588 87.588 88 92 88C96.412 88 100 91.588 100 96C100 100.412 96.412 104 92 104ZM120 88H100.92C98.722 85.552 95.544 84 92 84C88.456 84 85.28 85.552 83.08 88H64.92C62.722 85.552 59.544 84 56 84C52.456 84 49.28 85.552 47.08 88H28.92C26.722 85.552 23.544 84 20 84C16.456 84 13.28 85.552 11.08 88H4V80H120V88ZM106.468 76H101.132L91.532 60H96.868L106.468 76Z" fill="white"/>
<path d="M80 44V48H76V32H72V48H68V52H116V24H112V48H108V28H104V48H100V40H96V48H92V36H88V48H84V44H80Z" fill="white"/>
<path d="M84 8H88V12H84V8Z" fill="white"/>
<path d="M92 8H116V12H92V8Z" fill="white"/>
<path d="M84 16H116V20H84V16Z" fill="white"/>
<path d="M48 40H52V44H48V40Z" fill="white"/>
<path d="M48 48H52V52H48V48Z" fill="white"/>
</svg>
