<svg width="132" height="132" viewBox="0 0 132 132" fill="none" xmlns="http://www.w3.org/2000/svg">
<g clip-path="url(#clip0)">
<path d="M115.118 108.072V101.874C118.717 99.28 120.854 95.0939 120.854 90.5902C120.854 86.2324 118.801 82.0816 115.366 79.4903C114.588 78.8994 113.561 78.8025 112.685 79.2371C111.8 79.6762 111.25 80.5649 111.25 81.5564V88.0249C111.25 88.0992 111.204 88.1306 111.186 88.1306H105.857C105.835 88.1306 105.793 88.0932 105.793 88.0249V81.5564C105.793 80.5664 105.244 79.6782 104.362 79.2387C103.488 78.8032 102.461 78.8984 101.68 79.4875C98.5406 81.8588 96.5616 85.5265 96.2406 89.4617L74.8244 82.2553C73.5707 81.8338 72.7281 80.6618 72.7281 79.3392V79.3377C80.2949 75.0729 85.5894 67.2316 86.2978 58.1225C89.8703 58.0589 92.8762 54.9808 92.8762 51.3949C92.8762 49.4229 91.9991 47.5842 90.5654 46.3276C91.0851 45.2912 91.3796 44.1233 91.3796 42.8871C91.3796 39.3079 88.9252 36.2912 85.611 35.4312V26.9234C85.611 17.5663 79.3098 9.45837 70.4155 7.06174C70.2802 3.14505 67.0539 0 63.105 0H56.1833C52.2341 0 49.0078 3.14505 48.8725 7.06174C39.9782 9.45837 33.677 17.5666 33.677 26.9234V35.4312C30.3628 36.291 27.9084 39.3076 27.9084 42.8871C27.9084 44.1233 28.2029 45.2912 28.7226 46.3276C27.2889 47.5842 26.4118 49.4229 26.4118 51.3949C26.4118 54.9857 29.3829 58.0622 32.9902 58.1225C33.6987 67.2316 38.9931 75.0729 46.5599 79.3377V79.3392C46.5599 80.6618 45.7174 81.8338 44.4634 82.2556L22.704 89.5775C15.6559 91.9625 11.2757 98.3085 11.146 105.661V130.066C11.146 131.134 12.0117 132 13.0796 132H13.0804C14.1482 132 15.014 131.134 15.014 130.066V105.662C15.1008 101.221 17.2832 97.0334 21.0695 94.6182L26.6318 100.825C28.4934 102.903 29.5187 105.583 29.5187 108.373V130.066C29.5187 131.134 30.3845 132 31.4523 132C32.5202 132 33.3859 131.134 33.3859 130.066V124.14H57.7103V130.066C57.7103 131.134 58.576 132 59.6439 132C60.7117 132 61.5775 131.134 61.5775 130.066V124.14H85.9021V130.066C85.9021 131.134 86.7678 132 87.8357 132C88.9035 132 89.7693 131.134 89.7693 130.066V108.374C89.7693 105.582 90.7943 102.901 92.6555 100.824L97.1824 95.7737C98.1443 98.1961 99.7703 100.323 101.925 101.874V107.434C98.9283 107.104 96.2388 109.315 96.2386 112.354V127.081C96.2386 129.793 98.4454 132 101.158 132H111.795C116.763 132 120.804 127.959 120.804 122.99V116.444C120.805 112.649 118.445 109.397 115.118 108.072ZM89.009 51.3949C89.009 52.8583 87.8382 54.137 86.3793 54.2479V50.0986C86.9656 49.8782 87.518 49.5884 88.027 49.2391C88.6362 49.7735 89.009 50.5557 89.009 51.3949ZM32.9087 54.2479C31.4459 54.1365 30.279 52.8657 30.279 51.3949C30.279 50.5557 30.6518 49.7735 31.261 49.2388C31.7697 49.5882 32.3222 49.878 32.9087 50.0984V54.2479ZM31.7756 42.8871C31.7756 40.7756 33.4914 39.0576 35.6016 39.0529C35.6258 39.0529 61.2614 39.0524 61.2882 39.0524C62.3561 39.0524 63.2218 38.1867 63.2218 37.1188C63.2218 36.051 62.3561 35.1852 61.2882 35.1852H37.5442V26.9234C37.5442 19.6853 42.1853 13.3676 48.866 11.1022V22.6986C48.866 23.7664 49.7318 24.6322 50.7996 24.6322C51.8675 24.6322 52.7332 23.7664 52.7332 22.6986V7.31723C52.7332 5.41484 54.2809 3.86719 56.1833 3.86719H63.105C65.0074 3.86719 66.5551 5.41484 66.5551 7.31723V22.6988C66.5551 23.7667 67.4208 24.6324 68.4887 24.6324C69.5565 24.6324 70.4222 23.7667 70.4222 22.6988V11.1024C77.1029 13.3678 81.7441 19.6855 81.7441 26.9236V35.1855H70.3122C69.2443 35.1855 68.3786 36.0512 68.3786 37.1191C68.3786 38.1869 69.2443 39.0527 70.3122 39.0527C70.3297 39.0527 83.6617 39.0534 83.6777 39.0534C85.791 39.0534 87.5126 40.7725 87.5126 42.8871C87.5126 45.0014 85.7925 46.7216 83.6779 46.7216H35.6103C33.496 46.7216 31.7756 45.0014 31.7756 42.8871ZM36.7759 56.0304V50.5887H82.5118V56.0304C82.5118 68.6397 72.2532 78.8984 59.6439 78.8984C47.0345 78.8984 36.7759 68.6397 36.7759 56.0304ZM50.2123 81.047C53.1467 82.1571 56.3256 82.7655 59.6439 82.7655C62.9622 82.7655 66.141 82.1571 69.0754 81.047C69.665 83.3753 71.4282 85.2609 73.7901 85.9877C69.8331 89.2524 64.8223 91.0816 59.6436 91.0816C54.4649 91.0816 49.4541 89.2524 45.4972 85.9877C47.8446 85.2377 49.6279 83.3846 50.2123 81.047ZM59.6091 111.73C57.0364 109.368 54.6918 106.754 52.6301 103.945C51.9979 103.084 50.788 102.899 49.9272 103.531C49.0663 104.162 48.8807 105.373 49.5126 106.233C51.9123 109.503 54.6707 112.525 57.7103 115.223V120.273H33.3859V108.373C33.3859 104.63 32.0102 101.033 29.5118 98.2441L24.7765 92.9602L40.4951 87.6709C41.5166 91.3293 42.8943 94.8856 44.6111 98.266C45.1002 99.2289 46.275 99.5896 47.2106 99.1145C48.1627 98.6311 48.5427 97.467 48.0591 96.5149C47.1212 94.668 46.2913 92.7648 45.5725 90.8194C49.7382 93.4862 54.624 94.9487 59.6439 94.9487C64.5792 94.9487 69.384 93.5336 73.5031 90.9516C72.1751 94.3204 70.5393 97.5609 68.6106 100.637C66.074 104.683 63.0488 108.41 59.6091 111.73ZM89.7757 98.2431C87.278 101.031 85.9023 104.629 85.9023 108.374V120.273H61.5777V115.191C65.5401 111.485 69.0092 107.281 71.8871 102.691C74.8285 98.0002 77.1295 92.9504 78.7449 87.6547L94.511 92.9597L89.7757 98.2431ZM100.056 90.5902C100.056 88.4663 100.728 86.4118 101.925 84.7257V88.0249C101.925 90.2156 103.689 91.9978 105.857 91.9978H111.186C113.354 91.9978 115.118 90.2156 115.118 88.0249V84.704C116.326 86.3839 116.987 88.4235 116.987 90.5902C116.987 93.9484 115.351 97.0579 112.604 98.9121C111.757 99.4888 111.25 100.444 111.25 101.467V107.434H105.793V101.467C105.793 100.444 105.286 99.4888 104.433 98.9082C101.692 97.0579 100.056 93.9484 100.056 90.5902ZM116.938 122.99C116.938 125.826 114.631 128.133 111.795 128.133H101.158C100.578 128.133 100.106 127.661 100.106 127.08V112.353C100.106 111.773 100.578 111.301 101.158 111.301H111.795C114.631 111.301 116.938 113.608 116.938 116.444V122.99ZM64.261 72.0674C65.1317 71.4489 65.3359 70.2418 64.7174 69.3712C64.0989 68.5008 62.8918 68.2961 62.0212 68.9148C61.6442 69.1824 60.8535 69.6372 59.7913 69.6754C58.5892 69.7187 57.6925 69.2165 57.2648 68.9133C56.3934 68.2961 55.1866 68.5016 54.5691 69.3732C53.9516 70.2446 54.1576 71.4514 55.029 72.0689C55.8215 72.6304 57.4504 73.5454 59.6457 73.5454C61.569 73.5454 63.3569 72.7096 64.261 72.0674ZM48.3318 52.766C47.264 52.766 46.3982 53.6317 46.3982 54.6996V58.7016C46.3982 59.7694 47.264 60.6352 48.3318 60.6352C49.3997 60.6352 50.2654 59.7694 50.2654 58.7016V54.6996C50.2654 53.6317 49.3997 52.766 48.3318 52.766ZM70.9564 60.6354C72.0243 60.6354 72.89 59.7697 72.89 58.7018V54.6998C72.89 53.632 72.0243 52.7662 70.9564 52.7662C69.8886 52.7662 69.0228 53.632 69.0228 54.6998V58.7018C69.0228 59.7697 69.8886 60.6354 70.9564 60.6354Z" fill="white"/>
</g>
<defs>
<clipPath id="clip0">
<rect width="132" height="132" fill="white"/>
</clipPath>
</defs>
</svg>
