<svg id="Layer_1" data-name="Layer 1" xmlns="http://www.w3.org/2000/svg" xmlns:xlink="http://www.w3.org/1999/xlink" viewBox="0 0 155.01 56"><defs><style>.cls-1{fill:none;}.cls-2{clip-path:url(#clip-path);}.cls-3{fill:#2e2e40;}.cls-4{fill:#da1f43;}.cls-5{fill:url(#linear-gradient);}</style><clipPath id="clip-path"><rect class="cls-1" width="155" height="56"/></clipPath><linearGradient id="linear-gradient" x1="242" y1="-26.56" x2="275.4" y2="-26.56" gradientTransform="matrix(1, 0, 0, -1, -242, -7.63)" gradientUnits="userSpaceOnUse"><stop offset="0" stop-color="#ef4123"/><stop offset="1" stop-color="#da1f43"/></linearGradient></defs><title>Untitled-1</title><g class="cls-2"><path class="cls-3" d="M2.81,47.88v2.79H6.19v1.15H2.81v2.86H6.58V55.9H1.34V46.68H6.58v1.2Z"/><path class="cls-3" d="M52.17,29.2H47.42a2.37,2.37,0,0,1-2.37-2.37V.1H36.4V26.83a11.05,11.05,0,0,0,11,11.07H59.49A22.81,22.81,0,0,1,52.17,29.2Z"/><path class="cls-3" d="M101.23.15A18.74,18.74,0,0,0,89.3,4.46l5.31,6.46.28.17a9.69,9.69,0,0,1,2.33-1.42l0-1.54a1.11,1.11,0,0,1,1-1.15l2.63-.38a1.14,1.14,0,0,1,1.25.83l.39,1.5a9.79,9.79,0,0,1,2.58.66l1-1.09a1.12,1.12,0,0,1,1.49-.13l2.13,1.6a1.13,1.13,0,0,1,.29,1.48l-.74,1.29A10.4,10.4,0,0,1,110.5,15l1.48,0a1.12,1.12,0,0,1,1.15,1l.37,2.65a1.12,1.12,0,0,1-.83,1.25l-1.4.38a10.28,10.28,0,0,1-.66,2.62l1.09,1a1.13,1.13,0,0,1,.12,1.5l-1.59,2.14a1.13,1.13,0,0,1-1.47.29L107.45,27a10.24,10.24,0,0,1-2.37,1.39l0,1.53a1.12,1.12,0,0,1-1,1.15l-2.63.38a1.12,1.12,0,0,1-1.25-.83l-.42-1.57a9.88,9.88,0,0,1-2.48-.67l-1.09,1.17a1.13,1.13,0,0,1-1.5.12l-2.12-1.59a1.14,1.14,0,0,1-.3-1.48l.84-1.45A10.08,10.08,0,0,1,92,23.07l-1.66.05a1.12,1.12,0,0,1-1.14-1l-.38-2.64a1.13,1.13,0,0,1,.83-1.26l1.48-.39a18.76,18.76,0,1,0-18.72,20,18.66,18.66,0,0,0,11.9-4.29L78.8,26.83a10,10,0,0,1-8.39,2.1L69.12,30.3l-4.37,4.59,1.72-6.12.37-1.33A10.15,10.15,0,0,1,72.4,8.83a9.83,9.83,0,0,1,2.78.39l1.13-1.09,4.45-4.28L78.9,9.75l-.37,1.16a10.17,10.17,0,0,1,4,7.65V19A18.75,18.75,0,1,0,101.23.15Z"/><path class="cls-3" d="M144,.28H127.46a4.33,4.33,0,0,0-4.32,4.35V37.82h8.66V9H144a2.37,2.37,0,0,1,2.37,2.37v5.93A2.38,2.38,0,0,1,144,19.67h-8.26v8.7H144A11.05,11.05,0,0,0,155,17.3v-6A11.07,11.07,0,0,0,144,.28Z"/><path class="cls-4" d="M74.75,17.64l2.63-8.33L66.48,19.79l4.07.25L68,29.23,78.71,18Z"/><path class="cls-5" d="M18.22,13.7v9H11.89ZM17.26,0,0,24.53,3.53,31.4H18.22v6.46h8.66V31.4H33.4a34.85,34.85,0,0,1-.58-8.7H26.88V0l-.06,0Z"/><path class="cls-3" d="M10.54,54.73h3.17V55.9H9.06V46.68h1.48Z"/><path class="cls-3" d="M17.38,47.88v2.79h3.38v1.15H17.38v2.86h3.77V55.9H15.9V46.68h5.25v1.2Z"/><path class="cls-3" d="M30.52,47.45A4.1,4.1,0,0,1,32,49.78H30.45a2.73,2.73,0,0,0-1-1.33A3,3,0,0,0,27.69,48a2.7,2.7,0,0,0-1.47.4,2.87,2.87,0,0,0-1,1.16,4.07,4.07,0,0,0-.37,1.76A4,4,0,0,0,25.21,53a2.74,2.74,0,0,0,1,1.16,2.63,2.63,0,0,0,1.47.41,2.94,2.94,0,0,0,1.73-.49,2.74,2.74,0,0,0,1-1.31H32a4.17,4.17,0,0,1-1.5,2.33,4.94,4.94,0,0,1-5.11.26,4,4,0,0,1-1.54-1.65,5.64,5.64,0,0,1,0-4.86,4,4,0,0,1,1.54-1.67,4.38,4.38,0,0,1,2.3-.6A4.23,4.23,0,0,1,30.52,47.45Z"/><path class="cls-3" d="M40.44,46.68v1.2H37.88v8H36.39v-8H33.84v-1.2Z"/><path class="cls-3" d="M47.4,55.9l-2.28-3.68h-1V55.9H42.59V46.68h3.23a3.32,3.32,0,0,1,2.39.77,2.67,2.67,0,0,1,.81,2,2.63,2.63,0,0,1-.6,1.78,2.91,2.91,0,0,1-1.75.89l2.4,3.75Zm-3.34-4.74H45.7c1.19,0,1.79-.53,1.79-1.6a1.59,1.59,0,0,0-.44-1.18A1.89,1.89,0,0,0,45.69,48H44.05v3.2Z"/><path class="cls-3" d="M57.94,47.16a4.23,4.23,0,0,1,1.62,1.68,5.32,5.32,0,0,1,0,4.87A4.38,4.38,0,0,1,55.63,56a4.38,4.38,0,0,1-2.31-.61,4.25,4.25,0,0,1-1.63-1.68,5.24,5.24,0,0,1,0-4.87,4.18,4.18,0,0,1,1.63-1.68,4.5,4.5,0,0,1,2.31-.6A4.55,4.55,0,0,1,57.94,47.16Zm-3.88,1.19A2.73,2.73,0,0,0,53,49.51,4.27,4.27,0,0,0,53,53a2.73,2.73,0,0,0,1.07,1.16,3.07,3.07,0,0,0,1.58.4,3,3,0,0,0,1.55-.4A2.84,2.84,0,0,0,58.25,53a3.83,3.83,0,0,0,.38-1.76,3.77,3.77,0,0,0-.38-1.76,2.72,2.72,0,0,0-1.06-1.16,3,3,0,0,0-1.55-.41A3,3,0,0,0,54.06,48.35Z"/><path class="cls-3" d="M72.18,46.82V55.9H70.69V49.09L68.08,55.9H66.79l-2.63-6.81V55.9H62.68V46.82h1.79l3,7.25,2.94-7.25Z"/><path class="cls-3" d="M76.48,47.88v2.79h3.38v1.15H76.48v2.86h3.77V55.9H75V46.68h5.25v1.2Z"/><path class="cls-3" d="M89.62,47.45a4.1,4.1,0,0,1,1.5,2.33H89.55a2.79,2.79,0,0,0-1-1.33A3,3,0,0,0,86.78,48a2.67,2.67,0,0,0-1.46.4,2.87,2.87,0,0,0-1,1.16,3.93,3.93,0,0,0-.37,1.76A3.84,3.84,0,0,0,84.31,53a2.74,2.74,0,0,0,1,1.16,2.59,2.59,0,0,0,1.46.41,3,3,0,0,0,1.74-.49,2.74,2.74,0,0,0,1-1.31h1.57a4.17,4.17,0,0,1-1.5,2.33,4.92,4.92,0,0,1-5.1.26A4,4,0,0,1,83,53.74a5.74,5.74,0,0,1,0-4.86,4.1,4.1,0,0,1,1.55-1.67,4.38,4.38,0,0,1,2.3-.6A4.25,4.25,0,0,1,89.62,47.45Z"/><path class="cls-3" d="M100.93,46.68V55.9h-1.5V51.76H95.12V55.9H93.65V46.68h1.47v3.86h4.31V46.68Z"/><path class="cls-3" d="M109.22,53.9h-3.87l-.7,2h-1.58l3.38-9.08h1.7l3.36,9.08h-1.58Zm-.41-1.15-1.52-4.31-1.52,4.31Z"/><path class="cls-3" d="M121.06,55.9h-1.48l-4.45-6.81V55.9h-1.48V46.69h1.48l4.45,6.82V46.69h1.48Z"/><path class="cls-3" d="M125.37,46.68h-1.48V55.9h1.48Z"/><path class="cls-3" d="M135.1,47.45a4.1,4.1,0,0,1,1.5,2.33H135a2.81,2.81,0,0,0-1-1.33,3,3,0,0,0-1.73-.48,2.73,2.73,0,0,0-1.47.4,2.84,2.84,0,0,0-1,1.16,3.93,3.93,0,0,0-.38,1.76,3.84,3.84,0,0,0,.38,1.74,2.72,2.72,0,0,0,1,1.16,2.65,2.65,0,0,0,1.47.41,2.94,2.94,0,0,0,1.73-.49,2.82,2.82,0,0,0,1-1.31h1.57a4.17,4.17,0,0,1-1.5,2.33,4.94,4.94,0,0,1-5.11.26,4,4,0,0,1-1.54-1.65,5.64,5.64,0,0,1,0-4.86A4.07,4.07,0,0,1,130,47.21a4.38,4.38,0,0,1,2.3-.6A4.24,4.24,0,0,1,135.1,47.45Z"/><path class="cls-3" d="M144.59,53.9h-3.87l-.7,2h-1.58l3.38-9.08h1.7l3.36,9.08H145.3Zm-.42-1.15-1.52-4.31-1.52,4.31Z"/><path class="cls-3" d="M150.5,54.73h3.16V55.9H149V46.68h1.49Z"/></g></svg>